<mxfile host="Electron" agent="Mozilla/5.0 (Windows NT 10.0; Win64; x64) AppleWebKit/537.36 (KHTML, like Gecko) draw.io/24.7.17 Chrome/128.0.6613.36 Electron/32.0.1 Safari/537.36" version="24.7.17" pages="3">
  <diagram id="kgpKYQtTHZ0yAKxKKP6v" name="Login">
    <mxGraphModel dx="1290" dy="621" grid="1" gridSize="10" guides="1" tooltips="1" connect="1" arrows="1" fold="1" page="1" pageScale="1" pageWidth="850" pageHeight="1100" math="0" shadow="0">
      <root>
        <mxCell id="0" />
        <mxCell id="1" parent="0" />
        <mxCell id="kdblJebhLBmXazO4YI-m-12" value="alt" style="shape=umlFrame;whiteSpace=wrap;html=1;" parent="1" vertex="1">
          <mxGeometry x="130" y="274" width="450" height="220" as="geometry" />
        </mxCell>
        <mxCell id="3nuBFxr9cyL0pnOWT2aG-1" value="&lt;&lt;interface&gt;&gt;&#xa;User" style="shape=umlLifeline;perimeter=lifelinePerimeter;container=1;collapsible=0;recursiveResize=0;rounded=0;shadow=0;strokeWidth=1;" parent="1" vertex="1">
          <mxGeometry x="120" y="80" width="100" height="440" as="geometry" />
        </mxCell>
        <mxCell id="3nuBFxr9cyL0pnOWT2aG-2" value="" style="points=[];perimeter=orthogonalPerimeter;rounded=0;shadow=0;strokeWidth=1;" parent="3nuBFxr9cyL0pnOWT2aG-1" vertex="1">
          <mxGeometry x="45" y="70" width="10" height="70" as="geometry" />
        </mxCell>
        <mxCell id="kdblJebhLBmXazO4YI-m-22" value="Login is accepted" style="html=1;verticalAlign=bottom;endArrow=open;dashed=1;endSize=8;rounded=0;exitX=0.015;exitY=0.982;exitDx=0;exitDy=0;exitPerimeter=0;" parent="3nuBFxr9cyL0pnOWT2aG-1" source="kdblJebhLBmXazO4YI-m-17" edge="1">
          <mxGeometry relative="1" as="geometry">
            <mxPoint x="205" y="270" as="sourcePoint" />
            <mxPoint x="50" y="270" as="targetPoint" />
          </mxGeometry>
        </mxCell>
        <mxCell id="3nuBFxr9cyL0pnOWT2aG-5" value="&lt;&lt;controller&gt;&gt;&#xa;Login" style="shape=umlLifeline;perimeter=lifelinePerimeter;container=1;collapsible=0;recursiveResize=0;rounded=0;shadow=0;strokeWidth=1;" parent="1" vertex="1">
          <mxGeometry x="310" y="80" width="140" height="440" as="geometry" />
        </mxCell>
        <mxCell id="3nuBFxr9cyL0pnOWT2aG-6" value="" style="points=[];perimeter=orthogonalPerimeter;rounded=0;shadow=0;strokeWidth=1;" parent="3nuBFxr9cyL0pnOWT2aG-5" vertex="1">
          <mxGeometry x="60" y="80" width="10" height="60" as="geometry" />
        </mxCell>
        <mxCell id="kdblJebhLBmXazO4YI-m-25" value="" style="html=1;points=[];perimeter=orthogonalPerimeter;" parent="3nuBFxr9cyL0pnOWT2aG-5" vertex="1">
          <mxGeometry x="60" y="340.9" width="10" height="42" as="geometry" />
        </mxCell>
        <mxCell id="kdblJebhLBmXazO4YI-m-26" value="" style="endArrow=classic;html=1;rounded=0;exitX=1.1;exitY=0.274;exitDx=0;exitDy=0;exitPerimeter=0;" parent="3nuBFxr9cyL0pnOWT2aG-5" source="kdblJebhLBmXazO4YI-m-25" target="kdblJebhLBmXazO4YI-m-25" edge="1">
          <mxGeometry width="50" height="50" relative="1" as="geometry">
            <mxPoint x="47.5" y="422.9" as="sourcePoint" />
            <mxPoint x="97.5" y="372.9" as="targetPoint" />
          </mxGeometry>
        </mxCell>
        <mxCell id="kdblJebhLBmXazO4YI-m-27" value="redirect" style="text;html=1;align=left;verticalAlign=middle;resizable=0;points=[];autosize=1;strokeColor=none;fillColor=none;" parent="3nuBFxr9cyL0pnOWT2aG-5" vertex="1">
          <mxGeometry x="90" y="346.9" width="60" height="30" as="geometry" />
        </mxCell>
        <mxCell id="3nuBFxr9cyL0pnOWT2aG-8" value="Enter User Name/password" style="verticalAlign=bottom;endArrow=block;shadow=0;strokeWidth=1;exitX=0.976;exitY=0.325;exitDx=0;exitDy=0;exitPerimeter=0;entryX=0;entryY=0.233;entryDx=0;entryDy=0;entryPerimeter=0;" parent="1" source="3nuBFxr9cyL0pnOWT2aG-2" target="3nuBFxr9cyL0pnOWT2aG-6" edge="1">
          <mxGeometry relative="1" as="geometry">
            <mxPoint x="275" y="160" as="sourcePoint" />
            <mxPoint x="350" y="174" as="targetPoint" />
          </mxGeometry>
        </mxCell>
        <mxCell id="kdblJebhLBmXazO4YI-m-2" value="User" style="shape=umlLifeline;participant=umlActor;perimeter=lifelinePerimeter;whiteSpace=wrap;html=1;container=1;collapsible=0;recursiveResize=0;verticalAlign=top;spacingTop=36;outlineConnect=0;" parent="1" vertex="1">
          <mxGeometry x="60" y="80" width="20" height="440" as="geometry" />
        </mxCell>
        <mxCell id="3nuBFxr9cyL0pnOWT2aG-3" value="VisitÂ " style="verticalAlign=bottom;startArrow=oval;endArrow=block;startSize=8;shadow=0;strokeWidth=1;" parent="1" source="kdblJebhLBmXazO4YI-m-2" target="3nuBFxr9cyL0pnOWT2aG-2" edge="1">
          <mxGeometry relative="1" as="geometry">
            <mxPoint x="105" y="150" as="sourcePoint" />
            <Array as="points">
              <mxPoint x="140" y="160" />
            </Array>
          </mxGeometry>
        </mxCell>
        <mxCell id="kdblJebhLBmXazO4YI-m-5" value="&lt;&lt;Entity&gt;&gt;&#xa;User" style="shape=umlLifeline;perimeter=lifelinePerimeter;container=1;collapsible=0;recursiveResize=0;rounded=0;shadow=0;strokeWidth=1;" parent="1" vertex="1">
          <mxGeometry x="510" y="80" width="100" height="440" as="geometry" />
        </mxCell>
        <mxCell id="kdblJebhLBmXazO4YI-m-6" value="" style="points=[];perimeter=orthogonalPerimeter;rounded=0;shadow=0;strokeWidth=1;" parent="kdblJebhLBmXazO4YI-m-5" vertex="1">
          <mxGeometry x="45" y="140" width="10" height="210" as="geometry" />
        </mxCell>
        <mxCell id="kdblJebhLBmXazO4YI-m-10" value="" style="endArrow=classic;html=1;rounded=0;exitX=1.063;exitY=0.078;exitDx=0;exitDy=0;exitPerimeter=0;" parent="kdblJebhLBmXazO4YI-m-5" source="kdblJebhLBmXazO4YI-m-6" target="kdblJebhLBmXazO4YI-m-6" edge="1">
          <mxGeometry width="50" height="50" relative="1" as="geometry">
            <mxPoint x="50" y="160" as="sourcePoint" />
            <mxPoint x="-110" y="120" as="targetPoint" />
            <Array as="points">
              <mxPoint x="80" y="157" />
              <mxPoint x="80" y="180" />
              <mxPoint x="70" y="180" />
            </Array>
          </mxGeometry>
        </mxCell>
        <mxCell id="kdblJebhLBmXazO4YI-m-8" value="Login" style="verticalAlign=bottom;endArrow=block;shadow=0;strokeWidth=1;entryX=-0.193;entryY=0.672;entryDx=0;entryDy=0;entryPerimeter=0;" parent="1" source="3nuBFxr9cyL0pnOWT2aG-2" target="3nuBFxr9cyL0pnOWT2aG-6" edge="1">
          <mxGeometry x="0.0028" relative="1" as="geometry">
            <mxPoint x="180" y="191.93999999999994" as="sourcePoint" />
            <mxPoint x="350" y="200" as="targetPoint" />
            <mxPoint as="offset" />
          </mxGeometry>
        </mxCell>
        <mxCell id="kdblJebhLBmXazO4YI-m-9" value="Send username &amp;amp; password hash" style="edgeStyle=orthogonalEdgeStyle;rounded=0;orthogonalLoop=1;jettySize=auto;html=1;" parent="1" source="3nuBFxr9cyL0pnOWT2aG-6" edge="1">
          <mxGeometry x="0.0024" y="10" relative="1" as="geometry">
            <mxPoint x="555" y="220" as="targetPoint" />
            <Array as="points">
              <mxPoint x="390" y="220" />
              <mxPoint x="390" y="220" />
            </Array>
            <mxPoint as="offset" />
          </mxGeometry>
        </mxCell>
        <mxCell id="kdblJebhLBmXazO4YI-m-11" value="&lt;div style=&quot;&quot;&gt;&lt;span style=&quot;background-color: initial;&quot;&gt;Validate&lt;/span&gt;&lt;/div&gt;&amp;nbsp;Data" style="text;html=1;align=left;verticalAlign=middle;resizable=0;points=[];autosize=1;strokeColor=none;fillColor=none;" parent="1" vertex="1">
          <mxGeometry x="600" y="230" width="70" height="40" as="geometry" />
        </mxCell>
        <mxCell id="kdblJebhLBmXazO4YI-m-13" value="" style="line;strokeWidth=1;fillColor=none;align=left;verticalAlign=middle;spacingTop=-1;spacingLeft=3;spacingRight=3;rotatable=0;labelPosition=right;points=[];portConstraint=eastwest;strokeColor=inherit;" parent="1" vertex="1">
          <mxGeometry x="130" y="380" width="450" height="8" as="geometry" />
        </mxCell>
        <mxCell id="kdblJebhLBmXazO4YI-m-14" value="If data is valid" style="text;html=1;align=center;verticalAlign=middle;resizable=0;points=[];autosize=1;strokeColor=none;fillColor=none;fontStyle=0" parent="1" vertex="1">
          <mxGeometry x="190" y="270" width="100" height="30" as="geometry" />
        </mxCell>
        <mxCell id="kdblJebhLBmXazO4YI-m-17" value="" style="html=1;points=[];perimeter=orthogonalPerimeter;" parent="1" vertex="1">
          <mxGeometry x="370" y="308" width="10" height="42" as="geometry" />
        </mxCell>
        <mxCell id="kdblJebhLBmXazO4YI-m-19" value="" style="endArrow=classic;html=1;rounded=0;exitX=1.1;exitY=0.274;exitDx=0;exitDy=0;exitPerimeter=0;" parent="1" source="kdblJebhLBmXazO4YI-m-17" target="kdblJebhLBmXazO4YI-m-17" edge="1">
          <mxGeometry width="50" height="50" relative="1" as="geometry">
            <mxPoint x="360" y="390" as="sourcePoint" />
            <mxPoint x="410" y="340" as="targetPoint" />
          </mxGeometry>
        </mxCell>
        <mxCell id="kdblJebhLBmXazO4YI-m-21" value="redirect" style="text;html=1;align=left;verticalAlign=middle;resizable=0;points=[];autosize=1;strokeColor=none;fillColor=none;" parent="1" vertex="1">
          <mxGeometry x="400" y="314" width="60" height="30" as="geometry" />
        </mxCell>
        <mxCell id="kdblJebhLBmXazO4YI-m-23" value="Login is accepted" style="html=1;verticalAlign=bottom;endArrow=open;dashed=1;endSize=8;rounded=0;exitX=0.015;exitY=0.982;exitDx=0;exitDy=0;exitPerimeter=0;" parent="1" source="kdblJebhLBmXazO4YI-m-25" edge="1">
          <mxGeometry relative="1" as="geometry">
            <mxPoint x="202.5" y="382.9" as="sourcePoint" />
            <mxPoint x="167.5000000000001" y="462.9" as="targetPoint" />
          </mxGeometry>
        </mxCell>
        <mxCell id="kdblJebhLBmXazO4YI-m-24" value="Login is accepted" style="html=1;verticalAlign=bottom;endArrow=open;dashed=1;endSize=8;rounded=0;fontSize=10;" parent="1" edge="1">
          <mxGeometry x="-0.0286" y="2" relative="1" as="geometry">
            <mxPoint x="555" y="308" as="sourcePoint" />
            <mxPoint x="380" y="308" as="targetPoint" />
            <mxPoint as="offset" />
          </mxGeometry>
        </mxCell>
        <mxCell id="kdblJebhLBmXazO4YI-m-28" value="Login is not accepted" style="html=1;verticalAlign=bottom;endArrow=open;dashed=1;endSize=8;rounded=0;" parent="1" edge="1">
          <mxGeometry x="-0.0286" relative="1" as="geometry">
            <mxPoint x="555" y="420" as="sourcePoint" />
            <mxPoint x="380" y="420" as="targetPoint" />
            <mxPoint as="offset" />
          </mxGeometry>
        </mxCell>
      </root>
    </mxGraphModel>
  </diagram>
  <diagram id="SPTgcduXeMCV_rKLpYBW" name="register">
    <mxGraphModel dx="1358" dy="654" grid="1" gridSize="10" guides="1" tooltips="1" connect="1" arrows="1" fold="1" page="1" pageScale="1" pageWidth="1200" pageHeight="1920" math="0" shadow="0">
      <root>
        <mxCell id="0" />
        <mxCell id="1" parent="0" />
        <mxCell id="qjBeZN_dcJVgN0vhsk8I-1" value="" style="shape=umlLifeline;participant=umlActor;perimeter=lifelinePerimeter;whiteSpace=wrap;html=1;container=1;collapsible=0;recursiveResize=0;verticalAlign=top;spacingTop=36;outlineConnect=0;fontSize=10;size=40;" parent="1" vertex="1">
          <mxGeometry x="180" y="190" width="20" height="490" as="geometry" />
        </mxCell>
        <mxCell id="qjBeZN_dcJVgN0vhsk8I-6" value="" style="html=1;points=[];perimeter=orthogonalPerimeter;fontSize=10;" parent="qjBeZN_dcJVgN0vhsk8I-1" vertex="1">
          <mxGeometry x="5" y="80" width="10" height="350" as="geometry" />
        </mxCell>
        <mxCell id="qjBeZN_dcJVgN0vhsk8I-5" value="&amp;lt;&amp;lt;Entity&amp;gt;&amp;gt;&lt;br style=&quot;border-color: var(--border-color);&quot;&gt;&lt;span style=&quot;&quot;&gt;user&lt;/span&gt;" style="shape=umlLifeline;perimeter=lifelinePerimeter;whiteSpace=wrap;html=1;container=1;collapsible=0;recursiveResize=0;outlineConnect=0;fontSize=10;" parent="1" vertex="1">
          <mxGeometry x="900" y="175" width="100" height="505" as="geometry" />
        </mxCell>
        <mxCell id="qjBeZN_dcJVgN0vhsk8I-30" value="" style="html=1;points=[];perimeter=orthogonalPerimeter;fontSize=10;" parent="qjBeZN_dcJVgN0vhsk8I-5" vertex="1">
          <mxGeometry x="50" y="190" width="10" height="30" as="geometry" />
        </mxCell>
        <mxCell id="qjBeZN_dcJVgN0vhsk8I-7" value="Customer/Owner/Worker" style="text;html=1;align=center;verticalAlign=middle;resizable=0;points=[];autosize=1;strokeColor=none;fillColor=none;fontSize=10;" parent="1" vertex="1">
          <mxGeometry x="125" y="230" width="130" height="30" as="geometry" />
        </mxCell>
        <mxCell id="qjBeZN_dcJVgN0vhsk8I-8" value="" style="endArrow=open;endFill=1;endSize=12;html=1;rounded=0;fontSize=10;entryX=0.022;entryY=0.059;entryDx=0;entryDy=0;entryPerimeter=0;" parent="1" source="qjBeZN_dcJVgN0vhsk8I-6" target="qjBeZN_dcJVgN0vhsk8I-18" edge="1">
          <mxGeometry width="160" relative="1" as="geometry">
            <mxPoint x="200" y="281" as="sourcePoint" />
            <mxPoint x="370" y="280" as="targetPoint" />
          </mxGeometry>
        </mxCell>
        <mxCell id="qjBeZN_dcJVgN0vhsk8I-9" value="Select User type and register" style="text;html=1;align=center;verticalAlign=middle;resizable=0;points=[];autosize=1;strokeColor=none;fillColor=none;fontSize=10;" parent="1" vertex="1">
          <mxGeometry x="210" y="260" width="150" height="30" as="geometry" />
        </mxCell>
        <mxCell id="qjBeZN_dcJVgN0vhsk8I-12" value="Show form" style="html=1;verticalAlign=bottom;endArrow=open;dashed=1;endSize=8;rounded=0;fontSize=10;" parent="1" source="qjBeZN_dcJVgN0vhsk8I-18" edge="1">
          <mxGeometry relative="1" as="geometry">
            <mxPoint x="370" y="306" as="sourcePoint" />
            <mxPoint x="200" y="307" as="targetPoint" />
          </mxGeometry>
        </mxCell>
        <mxCell id="qjBeZN_dcJVgN0vhsk8I-13" value="" style="endArrow=open;endFill=1;endSize=12;html=1;rounded=0;fontSize=10;entryX=-0.08;entryY=0.332;entryDx=0;entryDy=0;entryPerimeter=0;" parent="1" source="qjBeZN_dcJVgN0vhsk8I-6" target="qjBeZN_dcJVgN0vhsk8I-18" edge="1">
          <mxGeometry width="160" relative="1" as="geometry">
            <mxPoint x="200" y="330" as="sourcePoint" />
            <mxPoint x="370" y="330" as="targetPoint" />
            <Array as="points" />
          </mxGeometry>
        </mxCell>
        <mxCell id="qjBeZN_dcJVgN0vhsk8I-20" value="" style="endArrow=open;endFill=1;endSize=12;html=1;rounded=0;fontSize=10;entryX=0.016;entryY=0.041;entryDx=0;entryDy=0;entryPerimeter=0;" parent="1" target="qjBeZN_dcJVgN0vhsk8I-19" edge="1">
          <mxGeometry width="160" relative="1" as="geometry">
            <mxPoint x="380" y="360" as="sourcePoint" />
            <mxPoint x="620" y="353" as="targetPoint" />
          </mxGeometry>
        </mxCell>
        <mxCell id="qjBeZN_dcJVgN0vhsk8I-21" value="Check UserName availability" style="text;html=1;align=center;verticalAlign=middle;resizable=0;points=[];autosize=1;strokeColor=none;fillColor=none;fontSize=10;" parent="1" vertex="1">
          <mxGeometry x="425" y="340" width="150" height="30" as="geometry" />
        </mxCell>
        <mxCell id="qjBeZN_dcJVgN0vhsk8I-23" value="" style="endArrow=open;endFill=1;endSize=12;html=1;rounded=0;fontSize=10;exitX=1.032;exitY=0.073;exitDx=0;exitDy=0;exitPerimeter=0;entryX=-0.011;entryY=-0.003;entryDx=0;entryDy=0;entryPerimeter=0;" parent="1" source="qjBeZN_dcJVgN0vhsk8I-19" target="qjBeZN_dcJVgN0vhsk8I-30" edge="1">
          <mxGeometry width="160" relative="1" as="geometry">
            <mxPoint x="620" y="367.80000000000007" as="sourcePoint" />
            <mxPoint x="849.8899999999999" y="368.69000000000005" as="targetPoint" />
            <Array as="points">
              <mxPoint x="610" y="365" />
            </Array>
          </mxGeometry>
        </mxCell>
        <mxCell id="qjBeZN_dcJVgN0vhsk8I-25" value="Return user name availability status" style="html=1;verticalAlign=bottom;endArrow=open;dashed=1;endSize=8;rounded=0;fontSize=10;exitX=-0.08;exitY=1.017;exitDx=0;exitDy=0;exitPerimeter=0;entryX=0.96;entryY=0.189;entryDx=0;entryDy=0;entryPerimeter=0;" parent="1" source="qjBeZN_dcJVgN0vhsk8I-30" target="qjBeZN_dcJVgN0vhsk8I-19" edge="1">
          <mxGeometry x="-0.0745" relative="1" as="geometry">
            <mxPoint x="700" y="390" as="sourcePoint" />
            <mxPoint x="600" y="400" as="targetPoint" />
            <Array as="points" />
            <mxPoint as="offset" />
          </mxGeometry>
        </mxCell>
        <mxCell id="qjBeZN_dcJVgN0vhsk8I-33" value="User name available" style="text;html=1;align=center;verticalAlign=middle;resizable=0;points=[];autosize=1;strokeColor=none;fillColor=none;fontSize=10;" parent="1" vertex="1">
          <mxGeometry x="410" y="410" width="110" height="30" as="geometry" />
        </mxCell>
        <mxCell id="qjBeZN_dcJVgN0vhsk8I-48" value="Set User data" style="endArrow=open;endFill=1;endSize=12;html=1;rounded=0;fontSize=10;exitX=1.027;exitY=0.46;exitDx=0;exitDy=0;exitPerimeter=0;" parent="1" edge="1">
          <mxGeometry x="0.0015" y="7" width="160" relative="1" as="geometry">
            <mxPoint x="610" y="466.94" as="sourcePoint" />
            <mxPoint x="949.5" y="466.94" as="targetPoint" />
            <mxPoint as="offset" />
          </mxGeometry>
        </mxCell>
        <mxCell id="qjBeZN_dcJVgN0vhsk8I-75" value="Redirect to login page" style="text;html=1;align=center;verticalAlign=middle;resizable=0;points=[];autosize=1;strokeColor=none;fillColor=none;fontSize=10;" parent="1" vertex="1">
          <mxGeometry x="220" y="550" width="120" height="30" as="geometry" />
        </mxCell>
        <mxCell id="qjBeZN_dcJVgN0vhsk8I-55" value="Registration Successful" style="text;html=1;align=center;verticalAlign=middle;resizable=0;points=[];autosize=1;strokeColor=none;fillColor=none;fontSize=10;" parent="1" vertex="1">
          <mxGeometry x="420" y="490.4" width="130" height="30" as="geometry" />
        </mxCell>
        <mxCell id="qjBeZN_dcJVgN0vhsk8I-3" value="&amp;lt;&amp;lt;interface&amp;gt;&amp;gt;&lt;br style=&quot;border-color: var(--border-color);&quot;&gt;&lt;span style=&quot;&quot;&gt;Create Account&lt;/span&gt;" style="shape=umlLifeline;perimeter=lifelinePerimeter;whiteSpace=wrap;html=1;container=1;collapsible=0;recursiveResize=0;outlineConnect=0;fontSize=10;" parent="1" vertex="1">
          <mxGeometry x="330" y="190" width="90" height="490" as="geometry" />
        </mxCell>
        <mxCell id="qjBeZN_dcJVgN0vhsk8I-18" value="" style="html=1;points=[];perimeter=orthogonalPerimeter;fontSize=10;" parent="qjBeZN_dcJVgN0vhsk8I-3" vertex="1">
          <mxGeometry x="40" y="80" width="10" height="320" as="geometry" />
        </mxCell>
        <mxCell id="qjBeZN_dcJVgN0vhsk8I-4" value="&amp;lt;&amp;lt;controller&amp;gt;&amp;gt;&lt;br style=&quot;border-color: var(--border-color);&quot;&gt;&lt;span style=&quot;&quot;&gt;Create Account&lt;/span&gt;" style="shape=umlLifeline;perimeter=lifelinePerimeter;whiteSpace=wrap;html=1;container=1;collapsible=0;recursiveResize=0;outlineConnect=0;fontSize=10;" parent="1" vertex="1">
          <mxGeometry x="530" y="175" width="150" height="505" as="geometry" />
        </mxCell>
        <mxCell id="qjBeZN_dcJVgN0vhsk8I-19" value="" style="html=1;points=[];perimeter=orthogonalPerimeter;fontSize=10;" parent="qjBeZN_dcJVgN0vhsk8I-4" vertex="1">
          <mxGeometry x="70" y="175" width="10" height="235" as="geometry" />
        </mxCell>
        <mxCell id="qjBeZN_dcJVgN0vhsk8I-24" value="&#xa;Check if username exists&#xa;&#xa;" style="text;html=1;align=center;verticalAlign=middle;resizable=0;points=[];autosize=1;strokeColor=none;fillColor=none;fontSize=10;" parent="qjBeZN_dcJVgN0vhsk8I-4" vertex="1">
          <mxGeometry x="150" y="165" width="140" height="50" as="geometry" />
        </mxCell>
        <mxCell id="qjBeZN_dcJVgN0vhsk8I-43" value="Display error message" style="text;html=1;align=center;verticalAlign=middle;resizable=0;points=[];autosize=1;strokeColor=none;fillColor=none;fontSize=10;" parent="qjBeZN_dcJVgN0vhsk8I-4" vertex="1">
          <mxGeometry x="-80" y="375" width="120" height="30" as="geometry" />
        </mxCell>
        <mxCell id="qjBeZN_dcJVgN0vhsk8I-44" value="" style="endArrow=classic;html=1;rounded=0;fontSize=10;" parent="qjBeZN_dcJVgN0vhsk8I-4" edge="1">
          <mxGeometry relative="1" as="geometry">
            <mxPoint x="70" y="395" as="sourcePoint" />
            <mxPoint x="-150.21857142857147" y="395" as="targetPoint" />
            <Array as="points">
              <mxPoint x="30.710000000000036" y="395" />
            </Array>
          </mxGeometry>
        </mxCell>
        <mxCell id="qjBeZN_dcJVgN0vhsk8I-45" value="Set UserName" style="edgeLabel;resizable=0;html=1;align=center;verticalAlign=middle;fontSize=10;" parent="qjBeZN_dcJVgN0vhsk8I-44" connectable="0" vertex="1">
          <mxGeometry relative="1" as="geometry">
            <mxPoint x="280" y="-145" as="offset" />
          </mxGeometry>
        </mxCell>
        <mxCell id="qjBeZN_dcJVgN0vhsk8I-47" value="" style="endArrow=open;endFill=1;endSize=12;html=1;rounded=0;fontSize=10;exitX=1.027;exitY=0.46;exitDx=0;exitDy=0;exitPerimeter=0;" parent="qjBeZN_dcJVgN0vhsk8I-4" target="qjBeZN_dcJVgN0vhsk8I-5" edge="1">
          <mxGeometry width="160" relative="1" as="geometry">
            <mxPoint x="80" y="262.99999999999994" as="sourcePoint" />
            <mxPoint x="410" y="263" as="targetPoint" />
          </mxGeometry>
        </mxCell>
        <mxCell id="qjBeZN_dcJVgN0vhsk8I-50" value="" style="html=1;points=[];perimeter=orthogonalPerimeter;fontSize=10;" parent="qjBeZN_dcJVgN0vhsk8I-4" vertex="1">
          <mxGeometry x="420" y="260" width="10" height="60" as="geometry" />
        </mxCell>
        <mxCell id="qjBeZN_dcJVgN0vhsk8I-34" value="User name unavailable" style="text;html=1;align=center;verticalAlign=middle;resizable=0;points=[];autosize=1;strokeColor=none;fillColor=none;fontSize=10;" parent="qjBeZN_dcJVgN0vhsk8I-4" vertex="1">
          <mxGeometry x="-150" y="355" width="130" height="30" as="geometry" />
        </mxCell>
        <mxCell id="qjBeZN_dcJVgN0vhsk8I-14" value="Enter details" style="text;html=1;align=center;verticalAlign=middle;resizable=0;points=[];autosize=1;strokeColor=none;fillColor=none;fontSize=10;" parent="1" vertex="1">
          <mxGeometry x="245" y="330" width="80" height="30" as="geometry" />
        </mxCell>
        <mxCell id="qjBeZN_dcJVgN0vhsk8I-51" value="Return Success or failure" style="html=1;verticalAlign=bottom;endArrow=open;dashed=1;endSize=8;rounded=0;fontSize=10;entryX=0.063;entryY=0.413;entryDx=0;entryDy=0;entryPerimeter=0;" parent="1" source="qjBeZN_dcJVgN0vhsk8I-5" target="qjBeZN_dcJVgN0vhsk8I-31" edge="1">
          <mxGeometry x="-0.1243" relative="1" as="geometry">
            <mxPoint x="690" y="490" as="sourcePoint" />
            <mxPoint x="390" y="490" as="targetPoint" />
            <Array as="points">
              <mxPoint x="620" y="490" />
            </Array>
            <mxPoint as="offset" />
          </mxGeometry>
        </mxCell>
        <mxCell id="qjBeZN_dcJVgN0vhsk8I-53" value="" style="endArrow=classic;html=1;rounded=0;fontSize=10;" parent="1" edge="1">
          <mxGeometry relative="1" as="geometry">
            <mxPoint x="600.22" y="509.8" as="sourcePoint" />
            <mxPoint x="380" y="510" as="targetPoint" />
            <Array as="points">
              <mxPoint x="560.9300000000001" y="509.8" />
            </Array>
          </mxGeometry>
        </mxCell>
        <mxCell id="qjBeZN_dcJVgN0vhsk8I-54" value="Set UserName" style="edgeLabel;resizable=0;html=1;align=center;verticalAlign=middle;fontSize=10;" parent="qjBeZN_dcJVgN0vhsk8I-53" connectable="0" vertex="1">
          <mxGeometry relative="1" as="geometry">
            <mxPoint x="290" y="-175" as="offset" />
          </mxGeometry>
        </mxCell>
        <mxCell id="qjBeZN_dcJVgN0vhsk8I-73" value="" style="endArrow=classic;html=1;rounded=0;fontSize=10;" parent="1" target="qjBeZN_dcJVgN0vhsk8I-6" edge="1">
          <mxGeometry relative="1" as="geometry">
            <mxPoint x="370" y="580" as="sourcePoint" />
            <mxPoint x="200" y="520" as="targetPoint" />
            <Array as="points">
              <mxPoint x="341" y="580" />
            </Array>
          </mxGeometry>
        </mxCell>
        <mxCell id="qjBeZN_dcJVgN0vhsk8I-74" value="Set UserName" style="edgeLabel;resizable=0;html=1;align=center;verticalAlign=middle;fontSize=10;" parent="qjBeZN_dcJVgN0vhsk8I-73" connectable="0" vertex="1">
          <mxGeometry relative="1" as="geometry">
            <mxPoint x="280" y="-145" as="offset" />
          </mxGeometry>
        </mxCell>
        <mxCell id="qjBeZN_dcJVgN0vhsk8I-31" value="alt" style="shape=umlFrame;whiteSpace=wrap;html=1;fontSize=10;" parent="1" vertex="1">
          <mxGeometry x="340" y="407.5" width="630" height="200" as="geometry" />
        </mxCell>
        <mxCell id="qjBeZN_dcJVgN0vhsk8I-32" value="" style="endArrow=none;html=1;rounded=0;fontSize=10;exitX=-0.004;exitY=0.606;exitDx=0;exitDy=0;exitPerimeter=0;entryX=1.004;entryY=0.616;entryDx=0;entryDy=0;entryPerimeter=0;" parent="1" source="qjBeZN_dcJVgN0vhsk8I-31" target="qjBeZN_dcJVgN0vhsk8I-31" edge="1">
          <mxGeometry width="50" height="50" relative="1" as="geometry">
            <mxPoint x="480" y="530" as="sourcePoint" />
            <mxPoint x="980" y="530" as="targetPoint" />
          </mxGeometry>
        </mxCell>
      </root>
    </mxGraphModel>
  </diagram>
  <diagram id="TZf5ZHWDFnh9wx6jhzRF" name="Page-3">
    <mxGraphModel dx="1909" dy="2229" grid="1" gridSize="10" guides="1" tooltips="1" connect="1" arrows="1" fold="1" page="1" pageScale="1" pageWidth="850" pageHeight="1100" math="0" shadow="0">
      <root>
        <mxCell id="0" />
        <mxCell id="1" parent="0" />
        <mxCell id="7-4B2ItB22WEfNJnWV4v-1" value="" style="html=1;jettySize=18;whiteSpace=wrap;fontSize=13;strokeColor=#333333;strokeOpacity=100;dashed=1;fixDash=1;dashPattern=16 6;strokeWidth=0.8;rounded=1;arcSize=10;edgeStyle=orthogonalEdgeStyle;startArrow=none;endArrow=none;exitX=0.5;exitY=0.532;exitPerimeter=0;lucidId=11gnPKq70np_;" edge="1" parent="1" source="7-4B2ItB22WEfNJnWV4v-12">
          <mxGeometry width="100" height="100" relative="1" as="geometry">
            <Array as="points" />
            <mxPoint x="760" y="337" as="targetPoint" />
          </mxGeometry>
        </mxCell>
        <mxCell id="7-4B2ItB22WEfNJnWV4v-4" value="" style="html=1;jettySize=18;whiteSpace=wrap;fontSize=13;fontFamily=helvetica;strokeColor=#333333;strokeOpacity=100;dashed=1;fixDash=1;dashPattern=16 6;strokeWidth=0.8;rounded=0;startArrow=none;endArrow=none;exitX=0.5;exitY=1.007;exitPerimeter=0;lucidId=11gnD~EwPFcd;" edge="1" parent="1" source="7-4B2ItB22WEfNJnWV4v-17">
          <mxGeometry width="100" height="100" relative="1" as="geometry">
            <Array as="points" />
            <mxPoint x="994" y="330" as="targetPoint" />
          </mxGeometry>
        </mxCell>
        <mxCell id="7-4B2ItB22WEfNJnWV4v-5" value="" style="html=1;jettySize=18;whiteSpace=wrap;fontSize=13;fontFamily=helvetica;strokeColor=#333333;strokeOpacity=100;dashed=1;fixDash=1;dashPattern=16 6;strokeWidth=0.8;rounded=1;arcSize=24;edgeStyle=orthogonalEdgeStyle;startArrow=none;endArrow=none;exitX=0.5;exitY=1.007;exitPerimeter=0;lucidId=11gnO1g8QkzR;" edge="1" parent="1" source="7-4B2ItB22WEfNJnWV4v-10">
          <mxGeometry width="100" height="100" relative="1" as="geometry">
            <Array as="points" />
            <mxPoint x="1264" y="337" as="targetPoint" />
          </mxGeometry>
        </mxCell>
        <mxCell id="7-4B2ItB22WEfNJnWV4v-6" value="" style="html=1;overflow=block;blockSpacing=1;whiteSpace=wrap;fontSize=13;spacing=0;strokeOpacity=100;fillOpacity=100;rounded=1;absoluteArcSize=1;arcSize=12;fillColor=#ffffff;strokeWidth=1.5;lucidId=11gn8U1xhFXO;" vertex="1" parent="1">
          <mxGeometry x="1249" y="-183" width="30" height="487" as="geometry" />
        </mxCell>
        <mxCell id="7-4B2ItB22WEfNJnWV4v-7" value="" style="html=1;jettySize=18;whiteSpace=wrap;fontSize=13;fontFamily=helvetica;strokeColor=#333333;strokeOpacity=100;dashed=1;fixDash=1;dashPattern=16 6;strokeWidth=0.8;rounded=1;arcSize=24;edgeStyle=orthogonalEdgeStyle;startArrow=none;endArrow=none;exitX=0.5;exitY=1.007;exitPerimeter=0;lucidId=11gnK0pyjSDr;" edge="1" parent="1" source="7-4B2ItB22WEfNJnWV4v-11">
          <mxGeometry width="100" height="100" relative="1" as="geometry">
            <Array as="points" />
            <mxPoint x="1535" y="337" as="targetPoint" />
          </mxGeometry>
        </mxCell>
        <mxCell id="7-4B2ItB22WEfNJnWV4v-8" value="" style="html=1;jettySize=18;whiteSpace=wrap;fontSize=13;fontFamily=helvetica;strokeColor=#333333;strokeOpacity=100;strokeWidth=0.8;rounded=0;startArrow=none;endArrow=block;endFill=1;lucidId=11gngB4q64L6;" edge="1" parent="1">
          <mxGeometry width="100" height="100" relative="1" as="geometry">
            <Array as="points" />
            <mxPoint x="1535" y="-19" as="sourcePoint" />
            <mxPoint x="760" y="-19" as="targetPoint" />
          </mxGeometry>
        </mxCell>
        <mxCell id="7-4B2ItB22WEfNJnWV4v-9" value="" style="html=1;overflow=block;blockSpacing=1;whiteSpace=wrap;fontSize=13;spacing=0;strokeOpacity=100;fillOpacity=100;rounded=1;absoluteArcSize=1;arcSize=12;fillColor=#ffffff;strokeWidth=1.5;lucidId=11gn80v3Rb_S;" vertex="1" parent="1">
          <mxGeometry x="980" y="-228" width="30" height="532" as="geometry" />
        </mxCell>
        <mxCell id="7-4B2ItB22WEfNJnWV4v-10" value="&lt;div style=&quot;display: flex; justify-content: center; text-align: center; align-items: baseline; font-size: 0; line-height: 1.25;margin-top: -2px;&quot;&gt;&lt;span&gt;&lt;span style=&quot;font-size:12px;&quot;&gt;&amp;lt;&amp;lt;Controller&amp;gt;&amp;gt;&lt;/span&gt;&lt;span style=&quot;font-size:16px;&quot;&gt;&#xa;&lt;/span&gt;&lt;/span&gt;&lt;/div&gt;&lt;div style=&quot;display: flex; justify-content: center; text-align: center; align-items: baseline; font-size: 0; line-height: 1.25;margin-top: -2px;&quot;&gt;&lt;span&gt;&lt;span style=&quot;font-size:12px;&quot;&gt;Place Order&lt;/span&gt;&lt;/span&gt;&lt;/div&gt;" style="align=center;whiteSpace=wrap;overflow=block;blockSpacing=1;html=1;fontSize=13;spacing=0;strokeColor=#febed9;strokeOpacity=100;fillOpacity=100;rounded=1;absoluteArcSize=1;arcSize=12;fillColor=#ffffff;strokeWidth=1.5;" vertex="1" parent="1">
          <mxGeometry x="1193" y="-370" width="143" height="92" as="geometry" />
        </mxCell>
        <mxCell id="7-4B2ItB22WEfNJnWV4v-11" value="&lt;div style=&quot;display: flex; justify-content: center; text-align: center; align-items: baseline; font-size: 0; line-height: 1.25;margin-top: -2px;&quot;&gt;&lt;span&gt;&lt;span style=&quot;font-size:12px;&quot;&gt;&amp;lt;&amp;lt;Entity&amp;gt;&amp;gt;&lt;/span&gt;&lt;span style=&quot;font-size:16px;&quot;&gt;&#xa;&lt;/span&gt;&lt;/span&gt;&lt;/div&gt;&lt;div style=&quot;display: flex; justify-content: center; text-align: center; align-items: baseline; font-size: 0; line-height: 1.25;margin-top: -2px;&quot;&gt;&lt;span&gt;&lt;span style=&quot;font-size:12px;&quot;&gt;Place Order&lt;/span&gt;&lt;/span&gt;&lt;/div&gt;" style="align=center;whiteSpace=wrap;overflow=block;blockSpacing=1;html=1;fontSize=13;spacing=0;strokeColor=#febed9;strokeOpacity=100;fillOpacity=100;rounded=1;absoluteArcSize=1;arcSize=12;fillColor=#ffffff;strokeWidth=1.5;" vertex="1" parent="1">
          <mxGeometry x="1464" y="-370" width="143" height="92" as="geometry" />
        </mxCell>
        <mxCell id="7-4B2ItB22WEfNJnWV4v-12" value="Customer" style="html=1;overflow=block;blockSpacing=1;shape=umlActor;labelPosition=center;verticalLabelPosition=bottom;verticalAlign=top;whiteSpace=nowrap;fontSize=13.3;align=center;spacing=0;strokeOpacity=100;fillOpacity=100;rounded=1;absoluteArcSize=1;arcSize=12;fillColor=#ffffff;strokeWidth=0.8;lucidId=11gnR9.PCLRu;" vertex="1" parent="1">
          <mxGeometry x="728" y="-346" width="60" height="135" as="geometry" />
        </mxCell>
        <mxCell id="7-4B2ItB22WEfNJnWV4v-13" value="" style="html=1;jettySize=18;whiteSpace=wrap;fontSize=13;strokeColor=#333333;strokeOpacity=100;strokeWidth=0.8;rounded=1;arcSize=10;edgeStyle=orthogonalEdgeStyle;startArrow=none;endArrow=block;endFill=1;entryX=-0.012;entryY=0.121;entryPerimeter=0;lucidId=11gn2cJrV3zp;" edge="1" parent="1" target="7-4B2ItB22WEfNJnWV4v-9">
          <mxGeometry width="100" height="100" relative="1" as="geometry">
            <Array as="points" />
            <mxPoint x="760" y="-163" as="sourcePoint" />
          </mxGeometry>
        </mxCell>
        <mxCell id="7-4B2ItB22WEfNJnWV4v-14" value="sends a Submit Order message" style="text;html=1;resizable=0;labelBackgroundColor=default;align=center;verticalAlign=middle;fontStyle=1;fontSize=11.7;" vertex="1" parent="7-4B2ItB22WEfNJnWV4v-13">
          <mxGeometry relative="1" as="geometry">
            <mxPoint as="offset" />
          </mxGeometry>
        </mxCell>
        <mxCell id="7-4B2ItB22WEfNJnWV4v-17" value="&lt;div style=&quot;display: flex; justify-content: center; text-align: center; align-items: baseline; font-size: 0; line-height: 1.25;margin-top: -2px;&quot;&gt;&lt;span&gt;&lt;span style=&quot;font-size:12px;&quot;&gt;&amp;lt;&amp;lt;Interface&amp;gt;&amp;gt;&lt;/span&gt;&lt;span style=&quot;font-size:16px;&quot;&gt;&#xa;&lt;/span&gt;&lt;/span&gt;&lt;/div&gt;&lt;div style=&quot;display: flex; justify-content: center; text-align: center; align-items: baseline; font-size: 0; line-height: 1.25;margin-top: -2px;&quot;&gt;&lt;span&gt;&lt;span style=&quot;font-size:12px;&quot;&gt;Place Order&lt;/span&gt;&lt;/span&gt;&lt;/div&gt;" style="align=center;whiteSpace=wrap;overflow=block;blockSpacing=1;html=1;fontSize=13;spacing=0;strokeOpacity=100;fillOpacity=100;rounded=1;absoluteArcSize=1;arcSize=12;fillColor=#ffffff;strokeWidth=1.5;" vertex="1" parent="1">
          <mxGeometry x="923" y="-370" width="143" height="92" as="geometry" />
        </mxCell>
        <mxCell id="7-4B2ItB22WEfNJnWV4v-19" value="" style="html=1;jettySize=18;whiteSpace=wrap;fontSize=13;strokeColor=#333333;strokeOpacity=100;strokeWidth=0.8;rounded=1;arcSize=10;edgeStyle=orthogonalEdgeStyle;startArrow=none;endArrow=block;endFill=1;exitX=1.025;exitY=0.155;exitPerimeter=0;entryX=-0.025;entryY=0.078;entryPerimeter=0;lucidId=aAhnI2G9m5oB;" edge="1" parent="1" source="7-4B2ItB22WEfNJnWV4v-9" target="7-4B2ItB22WEfNJnWV4v-6">
          <mxGeometry width="100" height="100" relative="1" as="geometry">
            <Array as="points" />
          </mxGeometry>
        </mxCell>
        <mxCell id="7-4B2ItB22WEfNJnWV4v-20" value="Order Detalis" style="text;html=1;resizable=0;labelBackgroundColor=default;align=center;verticalAlign=middle;fontStyle=1;fontSize=11.7;" vertex="1" parent="7-4B2ItB22WEfNJnWV4v-19">
          <mxGeometry relative="1" as="geometry">
            <mxPoint as="offset" />
          </mxGeometry>
        </mxCell>
        <mxCell id="7-4B2ItB22WEfNJnWV4v-21" value="" style="html=1;jettySize=18;whiteSpace=wrap;fontSize=13;strokeColor=#3a414a;strokeOpacity=100;strokeWidth=2.3;rounded=1;arcSize=12;edgeStyle=orthogonalEdgeStyle;startArrow=none;endArrow=block;endFill=1;exitX=0.5;exitY=-0.002;exitPerimeter=0;lucidId=YChnt-MGHP0_;" edge="1" parent="1">
          <mxGeometry width="100" height="100" relative="1" as="geometry">
            <Array as="points">
              <mxPoint x="1336" y="-183" />
            </Array>
            <mxPoint x="1280" y="-182.97399999999993" as="sourcePoint" />
            <mxPoint x="1280" y="-140" as="targetPoint" />
          </mxGeometry>
        </mxCell>
        <mxCell id="7-4B2ItB22WEfNJnWV4v-22" value="Validate Order Detalis" style="text;html=1;resizable=0;labelBackgroundColor=default;align=center;verticalAlign=middle;fontStyle=1;fontColor=#333333;fontSize=13.3;" vertex="1" parent="7-4B2ItB22WEfNJnWV4v-21">
          <mxGeometry relative="1" as="geometry">
            <mxPoint x="100" y="10" as="offset" />
          </mxGeometry>
        </mxCell>
        <mxCell id="7-4B2ItB22WEfNJnWV4v-25" value="" style="html=1;overflow=block;blockSpacing=1;whiteSpace=wrap;fontSize=13;spacing=0;strokeColor=#282c33;strokeOpacity=100;fillOpacity=100;rounded=1;absoluteArcSize=1;arcSize=9;fillColor=#ffffff;strokeWidth=1.5;lucidId=FXhns-G5UWdy;" vertex="1" parent="1">
          <mxGeometry x="655" y="173" width="938" height="2" as="geometry" />
        </mxCell>
        <mxCell id="h7FzKuavZX5B6_gHC-Dx-1" value="&lt;span style=&quot;font-size: 13px;&quot;&gt;Confirmation to customer Massage&lt;/span&gt;" style="text;html=1;align=center;verticalAlign=middle;whiteSpace=wrap;rounded=0;" vertex="1" parent="1">
          <mxGeometry x="1009" y="-50" width="240" height="30" as="geometry" />
        </mxCell>
        <mxCell id="7-4B2ItB22WEfNJnWV4v-2" value="&amp;nbsp; loop" style="html=1;blockSpacing=1;whiteSpace=wrap;shape=mxgraph.sysml.package2;xSize=90;overflow=fill;fontSize=13.3;align=left;spacing=0;strokeColor=#333333;strokeOpacity=100;fillOpacity=100;rounded=1;absoluteArcSize=1;arcSize=12;fillColor=#ffffff;strokeWidth=0.8;lucidId=11gnw5K94wnP;" vertex="1" parent="1">
          <mxGeometry x="655" y="-20" width="936" height="335" as="geometry" />
        </mxCell>
        <mxCell id="h7FzKuavZX5B6_gHC-Dx-2" value="Else its inCorrect" style="text;html=1;align=center;verticalAlign=middle;whiteSpace=wrap;rounded=0;" vertex="1" parent="7-4B2ItB22WEfNJnWV4v-2">
          <mxGeometry x="-15" y="174.99642857142857" width="140" height="17.94642857142857" as="geometry" />
        </mxCell>
        <mxCell id="h7FzKuavZX5B6_gHC-Dx-7" value="Else its inCorrect" style="text;html=1;align=center;verticalAlign=middle;whiteSpace=wrap;rounded=0;" vertex="1" parent="7-4B2ItB22WEfNJnWV4v-2">
          <mxGeometry x="-25" y="18" width="170" height="30" as="geometry" />
        </mxCell>
        <mxCell id="65Nsl3LTOXFtq1yxIU_a-1" value="" style="html=1;overflow=block;blockSpacing=1;whiteSpace=wrap;fontSize=13;spacing=0;strokeOpacity=100;fillOpacity=100;rounded=1;absoluteArcSize=1;arcSize=12;fillColor=#ffffff;strokeWidth=1.5;lucidId=11gn8U1xhFXO;" vertex="1" parent="7-4B2ItB22WEfNJnWV4v-2">
          <mxGeometry x="880" y="30" width="30" height="110" as="geometry" />
        </mxCell>
        <mxCell id="7-4B2ItB22WEfNJnWV4v-15" value="" style="html=1;jettySize=18;whiteSpace=wrap;fontSize=13;strokeColor=#333333;strokeOpacity=100;strokeWidth=0.8;rounded=1;arcSize=10;edgeStyle=orthogonalEdgeStyle;startArrow=none;endArrow=block;endFill=1;exitX=1.025;exitY=0.189;exitPerimeter=0;lucidId=11gnoEXbaKHt;" edge="1" parent="7-4B2ItB22WEfNJnWV4v-2">
          <mxGeometry width="100" height="100" relative="1" as="geometry">
            <Array as="points" />
            <mxPoint x="875.25" y="74.5" as="targetPoint" />
            <mxPoint x="625" y="73.54300000000012" as="sourcePoint" />
          </mxGeometry>
        </mxCell>
        <mxCell id="7-4B2ItB22WEfNJnWV4v-16" value="Save Order" style="text;html=1;resizable=0;labelBackgroundColor=default;align=center;verticalAlign=middle;fontSize=13.3;" vertex="1" parent="7-4B2ItB22WEfNJnWV4v-15">
          <mxGeometry relative="1" as="geometry">
            <mxPoint as="offset" />
          </mxGeometry>
        </mxCell>
        <mxCell id="65Nsl3LTOXFtq1yxIU_a-3" value="return Success or Error" style="html=1;verticalAlign=bottom;endArrow=open;dashed=1;endSize=8;curved=0;rounded=0;entryX=0.668;entryY=0.358;entryDx=0;entryDy=0;entryPerimeter=0;" edge="1" parent="7-4B2ItB22WEfNJnWV4v-2" target="7-4B2ItB22WEfNJnWV4v-2">
          <mxGeometry relative="1" as="geometry">
            <mxPoint x="875" y="120" as="sourcePoint" />
            <mxPoint x="795" y="110" as="targetPoint" />
          </mxGeometry>
        </mxCell>
        <mxCell id="65Nsl3LTOXFtq1yxIU_a-5" value="Display success or fail" style="text;html=1;align=center;verticalAlign=middle;whiteSpace=wrap;rounded=0;" vertex="1" parent="7-4B2ItB22WEfNJnWV4v-2">
          <mxGeometry x="405" y="120" width="145" height="30" as="geometry" />
        </mxCell>
        <mxCell id="65Nsl3LTOXFtq1yxIU_a-6" value="Data is not valid" style="text;html=1;align=center;verticalAlign=middle;whiteSpace=wrap;rounded=0;" vertex="1" parent="7-4B2ItB22WEfNJnWV4v-2">
          <mxGeometry x="405" y="250" width="145" height="30" as="geometry" />
        </mxCell>
        <mxCell id="65Nsl3LTOXFtq1yxIU_a-7" value="" style="endArrow=classic;html=1;rounded=0;exitX=0.636;exitY=0.448;exitDx=0;exitDy=0;exitPerimeter=0;entryX=0.379;entryY=0.448;entryDx=0;entryDy=0;entryPerimeter=0;" edge="1" parent="7-4B2ItB22WEfNJnWV4v-2">
          <mxGeometry width="50" height="50" relative="1" as="geometry">
            <mxPoint x="597.5" y="280" as="sourcePoint" />
            <mxPoint x="357.5" y="280" as="targetPoint" />
          </mxGeometry>
        </mxCell>
        <mxCell id="65Nsl3LTOXFtq1yxIU_a-8" value="Return success or failure" style="text;html=1;align=center;verticalAlign=middle;whiteSpace=wrap;rounded=0;" vertex="1" parent="7-4B2ItB22WEfNJnWV4v-2">
          <mxGeometry x="132.5" y="280" width="145" height="30" as="geometry" />
        </mxCell>
        <mxCell id="65Nsl3LTOXFtq1yxIU_a-9" value="" style="endArrow=classic;html=1;rounded=0;exitX=0.636;exitY=0.448;exitDx=0;exitDy=0;exitPerimeter=0;" edge="1" parent="7-4B2ItB22WEfNJnWV4v-2">
          <mxGeometry width="50" height="50" relative="1" as="geometry">
            <mxPoint x="325" y="310" as="sourcePoint" />
            <mxPoint x="105" y="310" as="targetPoint" />
          </mxGeometry>
        </mxCell>
        <mxCell id="65Nsl3LTOXFtq1yxIU_a-4" value="" style="endArrow=classic;html=1;rounded=0;exitX=0.636;exitY=0.448;exitDx=0;exitDy=0;exitPerimeter=0;entryX=0.379;entryY=0.448;entryDx=0;entryDy=0;entryPerimeter=0;" edge="1" parent="1" source="7-4B2ItB22WEfNJnWV4v-2" target="7-4B2ItB22WEfNJnWV4v-2">
          <mxGeometry width="50" height="50" relative="1" as="geometry">
            <mxPoint x="1150" y="160" as="sourcePoint" />
            <mxPoint x="1200" y="110" as="targetPoint" />
          </mxGeometry>
        </mxCell>
      </root>
    </mxGraphModel>
  </diagram>
</mxfile>
